<?xml version="1.0" encoding="utf-8"?>
<!-- Generator: Adobe Illustrator 27.0.1, SVG Export Plug-In . SVG Version: 6.00 Build 0)  -->
<svg version="1.1" id="Calque_1" xmlns="http://www.w3.org/2000/svg" xmlns:xlink="http://www.w3.org/1999/xlink" x="0px" y="0px"
	 viewBox="0 0 24 24" style="enable-background:new 0 0 24 24;" xml:space="preserve">
<style type="text/css">
	.st0{fill:#FFFFFF;}
</style>
<g>
	<path class="st0" d="M20.1,19.3L16.8,16c-0.2-0.2,0.1-0.4,0.3-0.3l3.3,3.3C20.6,19.2,20.3,19.5,20.1,19.3 M15.7,15.5l-0.3,0.3
		c-0.2-0.3-0.6-0.7-0.9-0.8c-0.1-0.1-0.1-0.4,0.1-0.6c0.2-0.2,0.5-0.2,0.6-0.1c0.1,0.3,0.4,0.6,0.8,0.9
		C15.9,15.3,15.8,15.4,15.7,15.5 M6.2,7.6c-1.9,2-0.4,5.6,2.6,6.1C6.8,12.1,5.5,9.5,6.2,7.6 M5.5,14.3c-2.4-2.4-2.4-6.3,0-8.6l0,0
		C3.4,8.3,3.7,12,6,14.3c1,1,2.2,1.7,3.6,1.9C8,16.1,6.6,15.4,5.5,14.3 M6.4,13.9C4,11.5,4,7.7,6.4,5.3c0.5-0.4,1-0.8,1.6-1.1
		c2.1-0.6,4.4,0,6,1.6c2.4,2.4,2.4,6.2,0,8.6c-0.5,0.5-1,0.9-1.6,1.2C10.3,16.1,8.1,15.5,6.4,13.9 M14.9,5.4
		c2.3,2.3,2.4,5.8,0.4,8.2c0,0,0,0-0.1,0c1.7-2.6,1.3-6-0.9-8.2c-1-1-2.2-1.6-3.5-1.8C12.4,3.6,13.9,4.3,14.9,5.4 M20.9,18.6
		l-3.5-3.5c-0.2-0.2-0.5-0.3-0.8-0.2c-0.5-0.3-0.8-0.6-0.9-1c2.2-2.5,2.1-6.5-0.4-8.9C12.5,2.1,8.1,2.3,5.1,5.3
		c-2.6,2.6-2.6,6.8,0,9.4c2.4,2.4,6.1,2.7,8.9,0.8c0.5,0.1,0.9,0.4,1.2,1c-0.1,0.3,0,0.6,0.2,0.8l3.5,3.5c0.7,0.7,1.5,0.8,2.2,0.1
		C21.7,20.2,21.7,19.4,20.9,18.6"/>
</g>
</svg>
