<?xml version="1.0" encoding="utf-8"?>
<!-- Generator: $$$/GeneralStr/196=Adobe Illustrator 27.6.0, SVG Export Plug-In . SVG Version: 6.00 Build 0)  -->
<svg version="1.1" id="Calque_1" xmlns="http://www.w3.org/2000/svg" xmlns:xlink="http://www.w3.org/1999/xlink" x="0px" y="0px"
	 viewBox="0 0 42.5 42.5" style="enable-background:new 0 0 42.5 42.5;" width="42.5" height="42.5" xml:space="preserve">
<style type="text/css">
	.st0{fill:#004edf;stroke:#FFFFFF;stroke-width:0.8504;stroke-miterlimit:10;}
</style>
<path class="st0" d="M25.6,21.2l7.9-7.9c0.6-0.6,0.6-1.4,0-1.9l-1.9-1.9C31,9,30.2,9,29.7,9.6l-7.9,7.9l-7.9-7.9
	C13.3,9,12.5,9,12,9.6l-1.9,1.9c-0.6,0.6-0.6,1.4,0,1.9l7.9,7.9l-7.9,7.9c-0.6,0.6-0.6,1.4,0,1.9L12,33c0.6,0.6,1.4,0.6,1.9,0
	l7.9-7.9l7.9,7.9c0.6,0.6,1.4,0.6,1.9,0l1.9-1.9c0.6-0.6,0.6-1.4,0-1.9L25.6,21.2z"/>
</svg>
