<?xml version="1.0" encoding="utf-8"?>
<!-- Generator: Adobe Illustrator 27.9.0, SVG Export Plug-In . SVG Version: 6.00 Build 0)  -->
<svg version="1.1" id="Calque_1" xmlns="http://www.w3.org/2000/svg" xmlns:xlink="http://www.w3.org/1999/xlink" x="0px" y="0px"
	 viewBox="0 0 42.5 42.5" style="enable-background:new 0 0 42.5 42.5;" xml:space="preserve"
	 width="42.5px" height="42.5px">
<style type="text/css">
	.st0{fill:#004EDF;}
	.st1{fill:#FFFFFF;}
</style>
<g>
	<path class="st0" d="M8.6,20.2v2c0,0.6,0.4,1,1.1,1h17.4l-2.6,2.1c-0.6,0.5-0.9,0.8-0.9,1.7v2.5c0,0.7,0.7,0.8,1.1,0.4l8.9-7.2
		c0.3-0.2,0.4-0.5,0.4-0.9v-1c0-0.4-0.1-0.7-0.4-0.9l-8.9-7.2c-0.5-0.4-1.1-0.3-1.1,0.4v2.5c0,0.8,0.3,1.1,0.9,1.6l2.5,2.1H9.5
		C9.1,19.2,8.6,19.6,8.6,20.2"/>
	<path class="st1" d="M24.2,30.6c-0.1,0-0.3,0-0.4-0.1c-0.4-0.2-0.6-0.5-0.6-1V27c0-1.1,0.4-1.5,1.1-2l1.7-1.3H9.7
		c-0.9,0-1.5-0.6-1.5-1.4v-2c0-0.4,0.2-0.8,0.5-1.1c0.3-0.2,0.6-0.3,0.9-0.2h16.3l-1.6-1.3c-0.7-0.5-1.1-0.9-1.1-1.9v-2.5
		c0-0.5,0.2-0.8,0.5-1c0.4-0.2,0.9-0.1,1.3,0.2l8.9,7.2c0.4,0.2,0.6,0.7,0.6,1.2v1c0,0.6-0.2,1-0.6,1.3L25,30.2
		C24.8,30.4,24.5,30.6,24.2,30.6z M9.4,19.7c0,0-0.1,0-0.2,0.1C9.1,19.9,9,20,9,20.2v2c0,0.4,0.2,0.6,0.7,0.6h18.6l-3.5,2.9
		C24.2,26.1,24,26.3,24,27v2.5c0,0.1,0,0.2,0.1,0.2c0.1,0,0.2,0,0.3-0.1l8.9-7.2c0.1-0.1,0.2-0.2,0.2-0.6v-1c0-0.4-0.1-0.5-0.2-0.5
		L24.4,13c-0.2-0.1-0.3-0.1-0.4-0.1c0,0-0.1,0.1-0.1,0.2v2.5c0,0.6,0.2,0.8,0.7,1.3l3.4,2.9L9.4,19.7C9.4,19.7,9.4,19.7,9.4,19.7z"
		/>
</g>
</svg>
