<?xml version="1.0" encoding="utf-8"?>
<!-- Generator: $$$/GeneralStr/196=Adobe Illustrator 27.6.0, SVG Export Plug-In . SVG Version: 6.00 Build 0)  -->
<svg version="1.1" id="Calque_1" xmlns="http://www.w3.org/2000/svg" xmlns:xlink="http://www.w3.org/1999/xlink" x="0px" y="0px"
	 viewBox="0 0 42.5 42.5" style="enable-background:new 0 0 42.5 42.5;" xml:space="preserve">
<style type="text/css">
	.st0{fill:#004EDF;}
</style>
<path class="st0" d="M8.6,20.2v2c0,0.6,0.4,1,1.1,1h17.4l-2.6,2.1c-0.6,0.5-0.9,0.8-0.9,1.7v2.5c0,0.7,0.7,0.8,1.1,0.4l8.9-7.2
	c0.3-0.2,0.4-0.5,0.4-0.9v-1c0-0.4-0.1-0.7-0.4-0.9l-8.9-7.2c-0.5-0.4-1.1-0.3-1.1,0.4v2.5c0,0.8,0.3,1.1,0.9,1.6l2.5,2.1H9.5
	C9.1,19.2,8.6,19.6,8.6,20.2"/>
</svg>
