<?xml version="1.0" encoding="utf-8"?>
<!-- Generator: $$$/GeneralStr/196=Adobe Illustrator 27.6.0, SVG Export Plug-In . SVG Version: 6.00 Build 0)  -->
<svg version="1.1" id="Calque_1" xmlns="http://www.w3.org/2000/svg" xmlns:xlink="http://www.w3.org/1999/xlink" x="0px" y="0px"
	 viewBox="0 0 42.5 42.5" style="enable-background:new 0 0 42.5 42.5;" xml:space="preserve"
	 height="40px" width="40px">
<style type="text/css">
	.st0{fill:#FFFFFF;stroke:#FFFFFF;stroke-width:0.8504;stroke-miterlimit:10;}
</style>
<path class="st0" d="M24.1,21.3l7.9-7.9c0.6-0.6,0.6-1.4,0-1.9l-1.8-1.9c-0.6-0.6-1.4-0.6-1.9,0l-7.9,7.9l-7.9-7.9
	c-0.6-0.6-1.4-0.6-1.9,0l-1.9,1.9c-0.6,0.6-0.6,1.4,0,1.9l7.9,7.9l-7.9,7.9c-0.6,0.6-0.6,1.4,0,1.9l1.9,1.9c0.6,0.6,1.4,0.6,1.9,0
	l7.9-7.9l7.9,7.9c0.6,0.6,1.4,0.6,1.9,0l1.9-1.9c0.6-0.6,0.6-1.4,0-1.9L24.1,21.3z"/>
</svg>
