<?xml version="1.0" encoding="utf-8"?>
<!-- Generator: $$$/GeneralStr/196=Adobe Illustrator 27.6.0, SVG Export Plug-In . SVG Version: 6.00 Build 0)  -->
<svg version="1.1" id="Calque_1" xmlns="http://www.w3.org/2000/svg" xmlns:xlink="http://www.w3.org/1999/xlink" x="0px" y="0px"
	 viewBox="0 0 42.5 42.5" style="enable-background:new 0 0 42.5 42.5;" xml:space="preserve">
<style type="text/css">
	.st0{fill:#004EDF;}
</style>
<path class="st0" d="M34,22.3v-2c0-0.6-0.5-1.1-1.1-1.1H15.4l2.6-2.1c0.6-0.5,0.9-0.9,0.9-1.6V13c0-0.7-0.7-0.8-1.1-0.5L9,19.8
	c-0.3,0.2-0.4,0.5-0.4,0.9v1c0,0.4,0.1,0.7,0.4,0.9l8.9,7.3c0.5,0.4,1.1,0.3,1.1-0.4V27c0-0.8-0.3-1.1-0.9-1.7l-2.6-2.1H33
	C33.6,23.4,34,22.9,34,22.3"/>
</svg>
