<?xml version="1.0" encoding="utf-8"?>
<!-- Generator: $$$/GeneralStr/196=Adobe Illustrator 27.6.0, SVG Export Plug-In . SVG Version: 6.00 Build 0)  -->
<svg version="1.1" id="Calque_1" xmlns="http://www.w3.org/2000/svg" xmlns:xlink="http://www.w3.org/1999/xlink" x="0px" y="0px"
	 viewBox="0 0 42.5 42.5" style="enable-background:new 0 0 42.5 42.5;" xml:space="preserve"
	 height="40px" width="40px">
<style type="text/css">
	.st0{fill:#004EDF;stroke:#004EDF;}
	.st1{fill:#FFFFFF;}
</style>
<path class="st0" d="M20.4,35.1c7.6,0,13.8-6.2,13.8-13.8S28,7.4,20.4,7.4S6.6,13.6,6.6,21.2C6.6,28.8,12.8,35.1,20.4,35.1
	L20.4,35.1z"/>
<g>
	<path class="st1" d="M16.3,18.7v-1.7h5.5V27h4.3v1.7H15.8V27h4v-8.2C19.8,18.7,16.3,18.7,16.3,18.7z M20.6,12.3
		c0.9,0,1.6,0.7,1.6,1.6s-0.7,1.6-1.6,1.6S19,14.8,19,13.9C19.1,13.1,19.7,12.3,20.6,12.3z"/>
</g>
</svg>
