<?xml version="1.0" encoding="UTF-8" standalone="no"?>
<svg
   xmlns:dc="http://purl.org/dc/elements/1.1/"
   xmlns:cc="http://creativecommons.org/ns#"
   xmlns:rdf="http://www.w3.org/1999/02/22-rdf-syntax-ns#"
   xmlns:svg="http://www.w3.org/2000/svg"
   xmlns="http://www.w3.org/2000/svg"
   xmlns:sodipodi="http://sodipodi.sourceforge.net/DTD/sodipodi-0.dtd"
   xmlns:inkscape="http://www.inkscape.org/namespaces/inkscape"
   version="1.1"
   id="Calque_1"
   x="0px"
   y="0px"
   viewBox="0 0 34.650398 24.515602"
   xml:space="preserve"
   sodipodi:docname="left_arrow.svg"
   width="34.650398"
   height="24.515602"
   inkscape:version="1.0.1 (3bc2e813f5, 2020-09-07)"><metadata
   id="metadata11"><rdf:RDF><cc:Work
       rdf:about=""><dc:format>image/svg+xml</dc:format><dc:type
         rdf:resource="http://purl.org/dc/dcmitype/StillImage" /><dc:title></dc:title></cc:Work></rdf:RDF></metadata><defs
   id="defs9" /><sodipodi:namedview
   pagecolor="#ffffff"
   bordercolor="#666666"
   borderopacity="1"
   objecttolerance="10"
   gridtolerance="10"
   guidetolerance="10"
   inkscape:pageopacity="0"
   inkscape:pageshadow="2"
   inkscape:window-width="1920"
   inkscape:window-height="1001"
   id="namedview7"
   showgrid="false"
   fit-margin-top="0"
   fit-margin-left="0"
   fit-margin-right="0"
   fit-margin-bottom="0"
   inkscape:zoom="17.294118"
   inkscape:cx="17.2752"
   inkscape:cy="14.595861"
   inkscape:window-x="-9"
   inkscape:window-y="-9"
   inkscape:window-maximized="1"
   inkscape:current-layer="Calque_1" />
<style
   type="text/css"
   id="style2">
	.st0{fill:#004EDF;stroke:#FFFFFF;stroke-width:0.8504;stroke-miterlimit:10;}
</style>
<path
   class="st0"
   d="m 34.2252,13.694387 v -2.7 c 0,-0.8 -0.6,-1.4000001 -1.4,-1.4000001 h -23.3 l 3.4,-2.8 c 0.8,-0.7 1.2,-1.2 1.2,-2.2 v -3.3 c 0,-0.89999999 -0.9,-1.09999999 -1.5,-0.59999999 L 0.92519999,10.294387 c -0.4,0.3 -0.5,0.7 -0.5,1.2 v 1.4 c 0,0.5 0.1,0.9 0.5,1.2 l 11.80000001,9.7 c 0.6,0.5 1.5,0.4 1.5,-0.6 v -3.3 c 0,-1 -0.4,-1.5 -1.2,-2.2 l -3.4,-2.8 h 23.3 c 0.8,0.2 1.3,-0.4 1.3,-1.2"
   id="path4" />
</svg>
