<?xml version="1.0" encoding="UTF-8" standalone="no"?>
<svg
   xmlns:dc="http://purl.org/dc/elements/1.1/"
   xmlns:cc="http://creativecommons.org/ns#"
   xmlns:rdf="http://www.w3.org/1999/02/22-rdf-syntax-ns#"
   xmlns:svg="http://www.w3.org/2000/svg"
   xmlns="http://www.w3.org/2000/svg"
   xmlns:sodipodi="http://sodipodi.sourceforge.net/DTD/sodipodi-0.dtd"
   xmlns:inkscape="http://www.inkscape.org/namespaces/inkscape"
   version="1.1"
   id="Calque_1"
   x="0px"
   y="0px"
   viewBox="0 0 34.650398 24.416315"
   xml:space="preserve"
   sodipodi:docname="right_arrow.svg"
   width="34.650398"
   height="24.416315"
   inkscape:version="1.0.1 (3bc2e813f5, 2020-09-07)"
   inkscape:export-filename="C:\laragon\www\soliemorin\user\themes\soliemorin\images\right_arrow.png"
   inkscape:export-xdpi="96"
   inkscape:export-ydpi="96"><metadata
   id="metadata11"><rdf:RDF><cc:Work
       rdf:about=""><dc:format>image/svg+xml</dc:format><dc:type
         rdf:resource="http://purl.org/dc/dcmitype/StillImage" /><dc:title /></cc:Work></rdf:RDF></metadata><defs
   id="defs9" /><sodipodi:namedview
   pagecolor="#ffffff"
   bordercolor="#666666"
   borderopacity="1"
   objecttolerance="10"
   gridtolerance="10"
   guidetolerance="10"
   inkscape:pageopacity="0"
   inkscape:pageshadow="2"
   inkscape:window-width="1920"
   inkscape:window-height="1001"
   id="namedview7"
   showgrid="false"
   fit-margin-top="0"
   fit-margin-left="0"
   fit-margin-right="0"
   fit-margin-bottom="0"
   inkscape:zoom="17.294118"
   inkscape:cx="13.690166"
   inkscape:cy="12.171929"
   inkscape:window-x="-9"
   inkscape:window-y="-9"
   inkscape:window-maximized="1"
   inkscape:current-layer="Calque_1"
   inkscape:document-rotation="0" />
<style
   type="text/css"
   id="style2">
	.st0{fill:#004EDF;stroke:#FFFFFF;stroke-width:0.8504;stroke-miterlimit:10;}
</style>
<path
   class="st0"
   d="m 0.42519999,10.721929 v 2.7 c 0,0.8 0.60000001,1.4 1.40000001,1.4 h 23.2 l -3.4,2.8 c -0.8,0.6 -1.2,1.1 -1.2,2.2 v 3.3 c 0,0.9 0.9,1.1 1.5,0.6 l 11.8,-9.6 c 0.4,-0.3 0.5,-0.7 0.5,-1.2 v -1.4 c 0,-0.5 -0.1,-0.9 -0.5,-1.2 l -11.9,-9.60000032 c -0.7,-0.5 -1.5,-0.4 -1.5,0.60000002 v 3.3 c 0,1 0.4,1.5 1.2,2.2 l 3.4,2.8 h -23.3 c -0.6,-0.2 -1.20000001,0.3 -1.20000001,1.1000003"
   id="path4" />
</svg>
