<?xml version="1.0" encoding="utf-8"?>
<!-- Generator: Adobe Illustrator 27.9.0, SVG Export Plug-In . SVG Version: 6.00 Build 0)  -->
<svg version="1.1" id="Calque_1" xmlns="http://www.w3.org/2000/svg" xmlns:xlink="http://www.w3.org/1999/xlink" x="0px" y="0px"
	 viewBox="0 0 42.5 42.5" style="enable-background:new 0 0 42.5 42.5;" xml:space="preserve"
	 width="42.5x" height="42.5px">
<style type="text/css">
	.st0{fill:#004EDF;}
	.st1{fill:#FFFFFF;}
</style>
<g>
	<path class="st0" d="M34,22.3v-2c0-0.6-0.5-1.1-1.1-1.1H15.4l2.6-2.1c0.6-0.5,0.9-0.9,0.9-1.6V13c0-0.7-0.7-0.8-1.1-0.5L9,19.8
		c-0.3,0.2-0.4,0.5-0.4,0.9v1c0,0.4,0.1,0.7,0.4,0.9l8.9,7.3c0.5,0.4,1.1,0.3,1.1-0.4V27c0-0.8-0.3-1.1-0.9-1.7l-2.6-2.1H33
		C33.6,23.4,34,22.9,34,22.3"/>
	<path class="st1" d="M18.5,30.6c-0.3,0-0.6-0.1-0.9-0.3l-8.9-7.3c-0.4-0.2-0.6-0.6-0.6-1.2v-1c0-0.6,0.2-1,0.6-1.3l8.8-7.3
		c0.4-0.3,0.9-0.3,1.2-0.1c0.4,0.2,0.6,0.5,0.6,1v2.5c0,0.9-0.4,1.4-1.1,1.9l-1.7,1.3h16.3c0.8,0,1.5,0.7,1.5,1.5v2
		c0,0.5-0.2,0.9-0.5,1.2c-0.3,0.2-0.6,0.3-0.9,0.2H16.7l1.7,1.3c0.7,0.6,1.1,1.1,1.1,2v2.5c0,0.5-0.2,0.8-0.5,1
		C18.8,30.5,18.6,30.6,18.5,30.6z M18.3,12.8c-0.1,0-0.2,0-0.2,0.1l-8.8,7.3C9.1,20.2,9,20.3,9,20.7v1c0,0.4,0.1,0.5,0.2,0.5
		l8.9,7.3c0.2,0.1,0.3,0.1,0.4,0.1c0,0,0.1-0.1,0.1-0.2V27c0-0.6-0.2-0.8-0.8-1.4l-3.5-2.8l18.8,0c0.1,0,0.2,0,0.3,0
		c0.1-0.1,0.2-0.3,0.2-0.5v-2c0-0.4-0.3-0.7-0.7-0.7H14.2l3.5-2.9c0.6-0.5,0.7-0.8,0.7-1.3V13c0-0.2-0.1-0.2-0.1-0.2
		C18.4,12.8,18.3,12.8,18.3,12.8z"/>
</g>
</svg>
